<svg xmlns="http://www.w3.org/2000/svg" width="800" height="520" viewBox="0 0 800 520">
<rect width="800" height="520" fill="#ffffff"/>
<defs>
<marker id="ah" markerWidth="10" markerHeight="8" refX="9" refY="4" orient="auto"><path d="M0,0 L9,4 L0,8 z" fill="#000000"/></marker>
<marker id="ahs" markerWidth="10" markerHeight="8" refX="1" refY="4" orient="auto"><path d="M9,0 L0,4 L9,8 z" fill="#000000"/></marker>
</defs>
<g font-family="Georgia, 'Times New Roman', serif" font-size="17" fill="#000000">

<g>
<text x="120" y="34" font-size="18" font-weight="bold">System 1</text>
<line x1="120" y1="180" x2="120" y2="400" stroke="#000000" stroke-width="6"/>
<line x1="120" y1="180" x2="230" y2="180" stroke="#000000" stroke-width="6"/>
<polygon points="120,180 120,202 142,180" fill="#000000"/>
<g stroke="#000000" stroke-width="1.6" fill="none">
<line x1="85" y1="400" x2="155" y2="400"/>
<line x1="92" y1="400" x2="78" y2="414"/>
<line x1="106" y1="400" x2="92" y2="414"/>
<line x1="120" y1="400" x2="106" y2="414"/>
<line x1="134" y1="400" x2="120" y2="414"/>
<line x1="148" y1="400" x2="134" y2="414"/>
</g>
<g stroke="#000000" stroke-width="1.4" fill="none">
<line x1="120" y1="140" x2="230" y2="140"/>
<line x1="120" y1="140" x2="120" y2="172" marker-end="url(#ah)"/>
<line x1="142" y1="140" x2="142" y2="172" marker-end="url(#ah)"/>
<line x1="164" y1="140" x2="164" y2="172" marker-end="url(#ah)"/>
<line x1="186" y1="140" x2="186" y2="172" marker-end="url(#ah)"/>
<line x1="208" y1="140" x2="208" y2="172" marker-end="url(#ah)"/>
<line x1="230" y1="140" x2="230" y2="172" marker-end="url(#ah)"/>
</g>
<text x="238" y="136" font-style="italic">q</text><text x="249" y="141" font-size="12">0</text>
<line x1="276" y1="226" x2="238" y2="188" stroke="#000000" stroke-width="1.8" fill="none" marker-end="url(#ah)"/>
<text x="284" y="244" font-style="italic">P</text>
<text x="252" y="200" font-size="14" font-style="italic">45°</text>
<line x1="212" y1="190" x2="212" y2="246" stroke="#000000" stroke-width="1.6" fill="none" marker-end="url(#ah)"/>
<text x="192" y="262" font-style="italic">v</text>
<g stroke="#000000" stroke-width="0.9" fill="none">
<line x1="114" y1="180" x2="62" y2="180"/>
<line x1="114" y1="400" x2="62" y2="400"/>
<line x1="120" y1="406" x2="120" y2="450"/>
<line x1="230" y1="188" x2="230" y2="450"/>
</g>
<line x1="70" y1="186" x2="70" y2="394" stroke="#000000" stroke-width="1.3" fill="none" marker-start="url(#ahs)" marker-end="url(#ah)"/>
<text x="38" y="296" font-style="italic">2l</text>
<line x1="126" y1="442" x2="224" y2="442" stroke="#000000" stroke-width="1.3" fill="none" marker-start="url(#ahs)" marker-end="url(#ah)"/>
<text x="172" y="464" font-style="italic">l</text>
<text x="98" y="418" font-style="italic">E</text>
<text x="96" y="176" font-style="italic">K</text>
<text x="236" y="174" font-style="italic">D</text>
<text x="132" y="300" font-style="italic">EI</text>
<text x="164" y="204" font-style="italic">EI</text>
</g>

<g transform="translate(380,0)">
<text x="120" y="34" font-size="18" font-weight="bold">System 2</text>
<line x1="120" y1="180" x2="120" y2="400" stroke="#000000" stroke-width="6"/>
<line x1="120" y1="180" x2="230" y2="180" stroke="#000000" stroke-width="6"/>
<polygon points="120,180 120,202 142,180" fill="#000000"/>
<g stroke="#000000" stroke-width="1.6" fill="none">
<line x1="85" y1="400" x2="155" y2="400"/>
<line x1="92" y1="400" x2="78" y2="414"/>
<line x1="106" y1="400" x2="92" y2="414"/>
<line x1="120" y1="400" x2="106" y2="414"/>
<line x1="134" y1="400" x2="120" y2="414"/>
<line x1="148" y1="400" x2="134" y2="414"/>
</g>
<g stroke="#000000" stroke-width="1.4" fill="none">
<line x1="120" y1="140" x2="230" y2="140"/>
<line x1="120" y1="140" x2="120" y2="172" marker-end="url(#ah)"/>
<line x1="142" y1="140" x2="142" y2="172" marker-end="url(#ah)"/>
<line x1="164" y1="140" x2="164" y2="172" marker-end="url(#ah)"/>
<line x1="186" y1="140" x2="186" y2="172" marker-end="url(#ah)"/>
<line x1="208" y1="140" x2="208" y2="172" marker-end="url(#ah)"/>
<line x1="230" y1="140" x2="230" y2="172" marker-end="url(#ah)"/>
</g>
<text x="238" y="136" font-style="italic">q</text><text x="249" y="141" font-size="12">0</text>
<line x1="237" y1="187" x2="333" y2="283" stroke="#000000" stroke-width="2.2"/>
<circle cx="230" cy="180" r="6" fill="#ffffff" stroke="#000000" stroke-width="1.8"/>
<circle cx="340" cy="290" r="6" fill="#ffffff" stroke="#000000" stroke-width="1.8"/>
<polygon points="340,296 316,332 364,332" fill="none" stroke="#000000" stroke-width="1.6"/>
<g stroke="#000000" stroke-width="1.4" fill="none">
<line x1="312" y1="332" x2="368" y2="332"/>
<line x1="318" y1="332" x2="306" y2="344"/>
<line x1="332" y1="332" x2="320" y2="344"/>
<line x1="346" y1="332" x2="334" y2="344"/>
<line x1="360" y1="332" x2="348" y2="344"/>
</g>
<text x="286" y="222" font-style="italic">EA</text>
<g stroke="#000000" stroke-width="0.9" fill="none" stroke-dasharray="4 3">
<line x1="230" y1="180" x2="392" y2="180"/>
<line x1="340" y1="290" x2="392" y2="290"/>
<line x1="340" y1="180" x2="340" y2="284"/>
<line x1="230" y1="186" x2="230" y2="378"/>
<line x1="340" y1="298" x2="340" y2="378"/>
</g>
<line x1="236" y1="370" x2="334" y2="370" stroke="#000000" stroke-width="1.3" fill="none" marker-start="url(#ahs)" marker-end="url(#ah)"/>
<text x="282" y="392" font-style="italic">l</text>
<line x1="384" y1="186" x2="384" y2="284" stroke="#000000" stroke-width="1.3" fill="none" marker-start="url(#ahs)" marker-end="url(#ah)"/>
<text x="394" y="240" font-style="italic">l</text>
<g stroke="#000000" stroke-width="0.9" fill="none">
<line x1="114" y1="180" x2="62" y2="180"/>
<line x1="114" y1="400" x2="62" y2="400"/>
</g>
<line x1="70" y1="186" x2="70" y2="394" stroke="#000000" stroke-width="1.3" fill="none" marker-start="url(#ahs)" marker-end="url(#ah)"/>
<text x="38" y="296" font-style="italic">2l</text>
<text x="98" y="418" font-style="italic">E</text>
<text x="96" y="176" font-style="italic">K</text>
<text x="222" y="168" font-style="italic">D</text>
<text x="350" y="284" font-style="italic">G</text>
<text x="132" y="300" font-style="italic">EI</text>
<text x="164" y="204" font-style="italic">EI</text>
</g>

</g>
</svg>
