<svg xmlns="http://www.w3.org/2000/svg" width="520" height="330" viewBox="0 0 520 330">
<rect width="520" height="330" fill="#ffffff"/>
<defs>
<marker id="arrowEnd" markerWidth="10" markerHeight="10" refX="8" refY="3" orient="auto" markerUnits="strokeWidth">
<path d="M0,0 L8,3 L0,6 Z" fill="#000000"/>
</marker>
<marker id="arrowStart" markerWidth="10" markerHeight="10" refX="0" refY="3" orient="auto" markerUnits="strokeWidth">
<path d="M8,0 L0,3 L8,6 Z" fill="#000000"/>
</marker>
</defs>
<path d="M 250,50 H 350 V 250 H 250 Z M 280,80 H 320 V 220 H 280 Z" fill="#d9d9d9" fill-rule="evenodd" stroke="#000000" stroke-width="2"/>
<line x1="320" y1="150" x2="350" y2="150" stroke="#ffffff" stroke-width="5"/>
<line x1="320" y1="150" x2="350" y2="150" stroke="#000000" stroke-width="1.2"/>
<circle cx="300" cy="150" r="3" fill="#000000"/>
<text x="306" y="168" font-family="Georgia, 'Times New Roman', serif" font-style="italic" font-size="16" fill="#000000">S</text>
<circle cx="210" cy="150" r="4" fill="none" stroke="#000000" stroke-width="2"/>
<line x1="204" y1="150" x2="216" y2="150" stroke="#000000" stroke-width="2"/>
<line x1="210" y1="144" x2="210" y2="156" stroke="#000000" stroke-width="2"/>
<text x="202" y="138" font-family="Georgia, 'Times New Roman', serif" font-style="italic" font-size="16" text-anchor="end" fill="#000000">M</text>
<line x1="210" y1="285" x2="300" y2="285" stroke="#000000" stroke-width="1.4" marker-start="url(#arrowStart)" marker-end="url(#arrowEnd)"/>
<line x1="210" y1="155" x2="210" y2="291" stroke="#000000" stroke-width="1"/>
<line x1="300" y1="155" x2="300" y2="291" stroke="#000000" stroke-width="1"/>
<text x="255" y="308" font-family="Georgia, 'Times New Roman', serif" font-style="italic" font-size="14" text-anchor="middle" fill="#000000">y_M = 4,5 t = 0,9 a</text>
<line x1="210" y1="30" x2="210" y2="270" stroke="#1a4fa0" stroke-width="1.4" stroke-dasharray="6 4"/>
<line x1="210" y1="36" x2="210" y2="96" stroke="#1a4fa0" stroke-width="1.6" marker-end="url(#arrowEnd)"/>
<text x="218" y="60" font-family="Georgia, 'Times New Roman', serif" font-style="italic" font-size="16" fill="#1a4fa0">F</text>
<line x1="300" y1="150" x2="240" y2="150" stroke="#000000" stroke-width="1.6" marker-end="url(#arrowEnd)"/>
<text x="232" y="146" font-family="Georgia, 'Times New Roman', serif" font-style="italic" font-size="16" fill="#000000">y</text>
</svg>
