<svg xmlns="http://www.w3.org/2000/svg" width="620" height="290" viewBox="0 0 620 290">
<rect width="620" height="290" fill="#ffffff"/>
<defs>
<marker id="arrowEnd" markerWidth="10" markerHeight="10" refX="8" refY="3" orient="auto" markerUnits="strokeWidth">
<path d="M0,0 L8,3 L0,6 Z" fill="#000000"/>
</marker>
<marker id="arrowStart" markerWidth="10" markerHeight="10" refX="0" refY="3" orient="auto" markerUnits="strokeWidth">
<path d="M8,0 L0,3 L8,6 Z" fill="#000000"/>
</marker>
</defs>
<line x1="60" y1="55" x2="60" y2="145" stroke="#000000" stroke-width="4"/>
<line x1="60" y1="55" x2="40" y2="71" stroke="#000000" stroke-width="1.6"/>
<line x1="60" y1="73" x2="40" y2="89" stroke="#000000" stroke-width="1.6"/>
<line x1="60" y1="91" x2="40" y2="107" stroke="#000000" stroke-width="1.6"/>
<line x1="60" y1="109" x2="40" y2="125" stroke="#000000" stroke-width="1.6"/>
<line x1="60" y1="127" x2="40" y2="143" stroke="#000000" stroke-width="1.6"/>
<line x1="60" y1="100" x2="520" y2="100" stroke="#000000" stroke-width="6"/>
<line x1="520" y1="32" x2="520" y2="96" stroke="#000000" stroke-width="1.6" marker-end="url(#arrowEnd)"/>
<text x="532" y="42" font-family="Georgia, 'Times New Roman', serif" font-style="italic" font-size="18" fill="#000000">F</text>
<line x1="60" y1="185" x2="520" y2="185" stroke="#000000" stroke-width="1.4" marker-start="url(#arrowStart)" marker-end="url(#arrowEnd)"/>
<line x1="60" y1="105" x2="60" y2="190" stroke="#000000" stroke-width="1"/>
<line x1="520" y1="105" x2="520" y2="190" stroke="#000000" stroke-width="1"/>
<text x="285" y="210" font-family="Georgia, 'Times New Roman', serif" font-style="italic" font-size="16" text-anchor="middle" fill="#000000">l</text>
<line x1="60" y1="235" x2="130" y2="235" stroke="#000000" stroke-width="1.6" marker-end="url(#arrowEnd)"/>
<text x="138" y="240" font-family="Georgia, 'Times New Roman', serif" font-style="italic" font-size="16" fill="#000000">x</text>
<line x1="60" y1="235" x2="60" y2="280" stroke="#000000" stroke-width="1.6" marker-end="url(#arrowEnd)"/>
<text x="48" y="278" font-family="Georgia, 'Times New Roman', serif" font-style="italic" font-size="16" fill="#000000">z</text>
</svg>
